<svg xmlns="http://www.w3.org/2000/svg" width="368" height="368" viewBox="0 0 368 368">
  <g id="yen" transform="translate(-217.654 -221.008)">
    <path id="path0" d="M59.13,0H84.24V-76.95l59.4-120.96H117.72L92.07-142.02c-5.94,14.58-12.69,28.35-19.71,43.2H71.28c-7.02-14.85-12.96-28.62-19.44-43.2L26.46-197.91H-.27L59.13-76.95Z" transform="translate(335.654 508.008)" fill="#e7db73"/>
    <g id="path1" transform="translate(217.654 221.008)" fill="none">
      <path d="M184,0A184,184,0,1,1,0,184,184,184,0,0,1,184,0Z" stroke="none"/>
      <path d="M 184 8 C 86.95327758789063 8 8 86.95327758789063 8 184 C 8 281.0467529296875 86.95327758789063 360 184 360 C 281.0467529296875 360 360 281.0467529296875 360 184 C 360 86.95327758789063 281.0467529296875 8 184 8 M 184 0 C 285.620361328125 0 368 82.37957763671875 368 184 C 368 285.620361328125 285.620361328125 368 184 368 C 82.37957763671875 368 0 285.620361328125 0 184 C 0 82.37957763671875 82.37957763671875 0 184 0 Z" stroke="none" fill="#000"/>
    </g>
    <path id="path2" d="M418.4,449.654c18.779,0,37.106,0,55.433.01a38.621,38.621,0,0,1,4.491.133,3.959,3.959,0,0,1,3.586,4.14c.014,2.26-1.2,4.23-3.885,4.348-2.827.125-5.663.074-8.495.075q-24.242.009-48.483.009c-6.687,0-6.7.012-6.7,6.47-.007,13.5.019,26.99-.014,40.485-.013,5.4-1.354,6.831-6.7,6.987-4.495.131-9-.082-13.493.071-4.683.159-6.578-1.921-6.533-6.589.131-13.494.044-26.99.031-40.485-.006-6.958-.017-6.953-7.215-6.95q-25.49.009-50.981.005c-1.333,0-2.666-.031-4-.06a4.193,4.193,0,0,1-4.389-4.463c-.02-2.572,1.635-4.187,4.545-4.172,8.83.045,17.66,0,26.49,0,10.163,0,20.33-.153,30.488.075,3.991.089,5.3-1.332,5.124-5.209a140.664,140.664,0,0,1,.014-15.985c.318-4.718-1.115-6.368-6.08-6.282-16.822.292-33.653.109-50.48.09a21.639,21.639,0,0,1-4.974-.253,4.019,4.019,0,0,1-3.389-4.31,3.959,3.959,0,0,1,3.691-4.017,28.214,28.214,0,0,1,3.991-.113q25.242-.014,50.482-.012h5.105c1.674-2.245.628-4.37,1.2-6.259.678-2.215,2.1-3.458,4.367-3.305,2.056.138,3.756,1.551,3.537,3.524-.835,7.529,4.456,7.009,8.953,6.728,22.31-1.394,44.635-.333,66.948-.675,1.333-.02,2.666,0,4,.018,2.855.036,5.026,1.184,5.071,4.258s-2.04,4.34-4.923,4.4c-2.165.042-4.331.016-6.5.017-16.328.007-32.656.118-48.982-.053-4.041-.042-5.7,1.087-5.483,5.347.309,5.982.143,11.993.055,17.989-.038,2.609.7,4.239,4.09,4.02M395.351,459.5c0,13.308-.033,26.615.026,39.923.017,3.862,3.348,5.911,6.157,3.569,2.146-1.789,4.5-3.739,4.483-7.314q-.138-34.433.061-68.865c.021-3.949-1.909-4.7-5.292-4.612s-5.654.417-5.529,4.862C395.55,437.535,395.352,448.02,395.351,459.5Z"/>
    <path id="path3" d="M323.431,307.678c12.783-.02,25.113.111,37.436-.1,4.1-.071,6.146,1.261,7.733,5.217,9.935,24.776,20.177,49.429,30.374,74.1.6,1.454.909,3.211,2.882,4.3,3.9-7.385,6.6-15.19,9.763-22.788,7.644-18.37,15.311-36.731,22.813-55.16,1.676-4.117,4.145-5.8,8.694-5.687,11.488.28,22.987.053,34.481.11,6.563.032,8.163,2.725,4.866,8.266q-21.745,36.557-43.59,73.054c-.424.71-1.04,1.3-1.479,2.008-1.539,2.466-3.438,4.426-6.479,2.6-3.215-1.936-2.471-4.792-.9-7.407q13.68-22.8,27.452-45.548c4.656-7.735,9.258-15.5,14.359-24.051-9.259-.487-17.47-1.261-25.753-.879-3.414.158-4.795,2.292-5.951,5.118q-16.826,41.133-33.763,82.221c-.947,2.307-1.449,4.949-4.639,5.17-3.393.235-3.878-2.5-4.815-4.786-11.187-27.258-22.462-54.48-33.487-81.8-1.684-4.175-3.847-6.029-8.461-5.822-7.461.336-14.948.09-23.371.09,3.888,8.554,8.636,15.292,12.788,22.345,9.508,16.154,19.155,32.225,28.737,48.335,1.526,2.566,1.935,5.155-.936,6.99-3.033,1.94-5.024.029-6.509-2.427q-13.125-21.709-26.161-43.472-9.828-16.438-19.492-32.976C318.012,311.245,318.736,308.651,323.431,307.678Z"/>
  </g>
</svg>
